<svg xmlns="http://www.w3.org/2000/svg" width="258" height="50"><path fill="#DEDEDE" fill-rule="evenodd" d="M87.192 7.747c-.864.384-1.75.725-2.627 1.083-1.464.6-2.937 1.174-4.387 1.798-1.153.495-2.275 1.053-3.416 1.574-.775.354-1.56.687-2.338 1.034-1.17.52-2.336 1.049-3.505 1.57-2.071.926-4.147 1.844-6.215 2.772-2.348 1.053-4.691 2.118-7.038 3.176-1.714.772-3.44 1.521-5.144 2.314-2.007.931-3.996 1.897-5.99 2.848-1.158.552-2.327 1.08-3.47 1.657-2.17 1.094-4.324 2.22-6.489 3.327-1.138.582-2.298 1.124-3.42 1.733a433.467 433.467 0 00-6.573 3.653c-1.47.83-2.922 1.695-4.371 2.564a623.148 623.148 0 00-6.407 3.897c-1.084.668-2.125 1.403-3.214 2.064-1.327.806-2.671 1.59-4.035 2.335-.758.413-1.579.716-2.362 1.091-.342.164-.644.416-.995.563-.75.316-1.515.593-2.278.873-.359.13-.727.295-1.1.32-.468.031-.948-.045-1.419-.108-.297-.041-.524-.538-.322-.725.32-.295.665-.613 1.063-.77 1.912-.755 3.833-1.46 5.537-2.647 1.257-.875 2.64-1.583 3.97-2.363 1.122-.656 2.253-1.302 3.375-1.96 1.985-1.17 3.956-2.363 5.95-3.516a469.38 469.38 0 016.915-3.918c1.261-.701 2.561-1.339 3.834-2.023.585-.317 1.124-.714 1.716-1.018a453.223 453.223 0 016.794-3.45c1.86-.92 3.753-1.783 5.625-2.682 1.474-.708 2.927-1.459 4.41-2.148 1.655-.773 3.338-1.49 5.001-2.249 1.418-.644 2.816-1.33 4.237-1.965.853-.38 1.745-.675 2.598-1.054 1.102-.49 2.178-1.043 3.277-1.542 2.176-.987 4.367-1.941 6.543-2.929 1.788-.813 3.55-1.681 5.349-2.473 1.463-.643 2.969-1.196 4.445-1.815 1.05-.442 2.077-.938 3.123-1.385.75-.32 1.522-.584 2.277-.893 1.046-.429 2.147-.367 3.241-.341.197.004.392.142.643.238a2.998 2.998 0 01-.319.311l.129-.022a10.79 10.79 0 001.776-.468c.432-.155.766-.085.987.265.24.387.384.828.603 1.229.089.165.24.318.397.427.868.612 1.787 1.162 2.611 1.822.948.755 1.793 1.633 2.729 2.402.87.716 1.79 1.375 2.716 2.025.292.207.694.26.998.455.974.627 2.094 1.147 2.842 1.978.706.787 1.687.822 2.45 1.357.418.293.91.503 1.39.694.29.117.638.092.94.189.656.211 1.294.479 1.953.685.422.133.876.167 1.3.293.652.194 1.317.37 1.927.655 1.088.51 2.227.792 3.403 1.02 1.186.23 2.337.632 3.52.885 1.094.233 2.211.361 3.317.545 1.155.192 2.308.4 3.466.594.828.14 1.661.275 2.495.402 1.144.176 2.287.354 3.435.507 1.621.214 3.244.4 4.865.609.662.087 1.319.215 1.983.295.52.063 1.045.086 1.57.118.374.022.75.003 1.119.046 1.471.171 2.938.356 4.407.54.727.091 1.453.187 2.18.283 1.438.192 2.882.367 4.317.583.87.13 1.73.332 2.594.486.826.146 1.655.263 2.48.41.235.045.454.172.686.238.812.231 1.654.39 2.428.703.481.196.864.622 1.306.956-.135.221-.263.378-.334.558-.415 1.034-.934 1.244-1.96.826-.285-.115-.71-.01-.916-.181-.728-.606-1.78-.229-2.489-.85-.185-.162-.474-.207-.68-.353-.622-.438-1.29-.083-1.931-.128-.329-.021-.668.057-.991.016-1.336-.167-2.665-.4-4.003-.533-1.051-.101-2.115-.072-3.172-.133-.331-.02-.65-.196-.98-.202-.734-.017-1.47.031-2.205.044-.141.002-.285-.064-.43-.071-.82-.043-1.678-.242-2.455-.08-1.222.256-2.382.788-3.588 1.141-1.088.32-1.38 1.122-1.45 2.077-.067.943-.578 1.428-1.555 1.435-.64.007-1.294-.026-1.925.071-.54.083-1.054.33-1.583.496-.14.046-.287.091-.431.09-.664-.006-1.328-.043-1.992-.04-1.04.004-2.083.041-3.123.043-.415 0-.83-.053-1.244-.1-.564-.065-1.124-.18-1.69-.22a25.078 25.078 0 01-5.405-.964c-.69-.207-1.446-.192-2.151-.366a31.243 31.243 0 01-3.016-.894c-1.426-.512-2.823-1.099-4.231-1.651-2.21-.866-4.193-2.117-6.131-3.438-2.044-1.39-4.067-2.809-6.114-4.195-.72-.488-1.496-.897-2.218-1.38-1.003-.671-2.034-1.32-2.95-2.094-.505-.427-.82-1.076-1.173-1.654-.076-.125-.009-.44.108-.55.542-.506.488-1.226.762-1.824.269-.58.286-1.2.104-1.76-.182-.553-.492-1.132-.919-1.523-.527-.486-1.233-.786-1.862-1.169-.362-.22-.741-.42-1.08-.671-.634-.47-.753-1.203-.405-1.8zM258 34.737c-.222.136-.37.277-.542.324-1.025.282-2.033.638-3.135.217-.523-.199-1.133-.152-1.7-.237-.9-.134-1.796-.284-2.693-.427-.076-.013-.15-.033-.225-.042-1.331-.153-2.667-.282-3.993-.459-1.78-.24-3.554-.523-5.33-.777-.687-.099-1.38-.154-2.064-.268-.45-.075-.886-.301-1.334-.32-.656-.032-1.337-.022-1.966.136-.306.077-.693.502-.744.818-.186 1.168-.166 2.322.93 3.135.147.107.26.424.21.59-.049.171-.306.373-.488.394-.666.074-1.34.082-2.009.107-.746.03-1.49.06-2.237.07-.738.009-1.477-.01-2.214-.018-.498-.007-.997.003-1.492-.04-.783-.069-1.559-.178-2.34-.262-.156-.016-.317.017-.476.023-.23.007-.486.083-.683.007-.785-.298-1.575-.24-2.388-.178-.7.055-1.41.003-2.111-.061-1.412-.132-2.826-.255-4.228-.47-1.343-.207-2.67-.53-4.006-.792-.604-.118-1.221-.182-1.82-.326-.96-.232-1.92-.48-2.865-.772-1.908-.586-3.818-1.16-5.7-1.825-1.353-.477-2.659-1.102-3.99-1.644-1.208-.491-2.425-.957-3.638-1.433-.07-.028-.16-.026-.21-.074-.784-.717-1.837-.876-2.747-1.31-1.012-.48-1.863-1.188-2.848-1.68-.63-.314-1.22-.707-1.86-1-.643-.292-1.345-.46-1.981-.766-.809-.386-1.564-.895-2.372-1.279-1.4-.665-2.835-1.257-4.24-1.915-1.098-.512-2.16-1.097-3.257-1.612-.655-.309-1.345-.544-2.019-.813-.068-.03-.147-.048-.201-.095-1.1-.966-2.58-1.172-3.765-1.97a35.158 35.158 0 00-1.933-1.196c-.563-.33-1.17-.592-1.708-.953-.605-.406-1.16-.891-1.732-1.345-.281-.221-.59-.423-.825-.688-.336-.38-.622-.807-.925-1.22-.292-.396 0-1.459.515-1.588.748-.188 1.324-.576 1.864-1.104.236-.23.595-.334 1-.548.118-.444-.342-.625-.666-.821-.912-.553-1.868-1.035-2.78-1.586a35.842 35.842 0 01-2.356-1.543c-.638-.457-1.234-.977-1.847-1.471-.353-.284-.679-.607-1.055-.854-1.362-.895-.704-1.766.17-2.41.51-.376 1.11-.147 1.666-.213.561-.065 1.121-.153 1.682-.153.29 0 .641.096.866.276.81.646 1.545 1.387 2.368 2.015 1.354 1.031 2.714 2.063 4.144 2.98 1.325.851 2.724 1.596 4.129 2.307 1.773.9 3.579 1.73 5.382 2.566 1.329.615 2.681 1.167 4.005 1.792 1.965.93 3.908 1.903 5.867 2.846.665.319 1.354.586 2.021.9 1.279.6 2.54 1.248 3.83 1.815 1.196.523 2.437.944 3.639 1.453 1.488.632 2.949 1.324 4.435 1.955.322.135.706.12 1.017.226.673.28 1.341.575 2.023.84.922.356 1.843.716 2.782 1.022.941.306 1.905.538 2.855.818 1.03.304 2.047.653 3.082.935.827.228 1.672.391 2.513.57.675.142 1.352.266 2.03.394.947.18 1.894.362 2.842.531 1.141.204 2.283.395 3.425.59 1.144.194 2.293.37 3.436.58 1.457.267 2.907.566 4.362.835 1.456.27 2.921.494 4.373.786 1.222.248 2.423.624 3.652.834 1.208.21 2.292.773 3.454 1.085a118.28 118.28 0 006.253 1.515c2.273.484 4.567.859 6.852 1.293 1.218.23 2.432.48 3.645.73.085.017.158.09.419.247zM106.744 16c-.317-.042-.68-.059-1.027-.141-.77-.183-.94-.743-.41-1.302.238-.251.468-.524.756-.715.222-.145.558-.296.791-.243.883.204 1.564-.23 2.27-.56.938-.44 1.838-.952 2.778-1.39a54.454 54.454 0 012.727-1.156c1.78-.715 3.557-1.434 5.352-2.11 1.252-.474 2.513-.935 3.803-1.3a205.54 205.54 0 017.597-2.007c1.517-.366 3.07-.597 4.61-.86.648-.11 1.31-.163 1.967-.212.206-.016.45.015.62.113.176.104.283.313.422.478-.146.107-.277.245-.438.314-1.53.663-3.185.858-4.814 1.153-1.32.238-2.642.492-3.94.822-1.592.408-3.168.882-4.737 1.367-.636.197-1.226.52-1.854.742-.859.306-1.738.56-2.6.857-.329.112-.633.281-.946.43-.706.333-1.401.686-2.116 1-.366.164-.785.228-1.144.404-.552.27-1.133.46-1.701.68-1.043.405-1.975 1.058-2.971 1.578-.805.418-1.631.795-2.453 1.181-.577.272-1.158.549-1.754.782-.221.087-.492.064-.788.095z"/></svg>