<svg height="40" width="115" xmlns="http://www.w3.org/2000/svg"><mask id="a" fill="#fff"><path d="M0 40h114.815V0H0z" fill-rule="evenodd"/></mask><g fill="#fefefe" fill-rule="evenodd"><path d="M108.148 9.48c-.061.037-.102.076-.15.088-.286.077-.565.174-.871.06-.146-.055-.315-.043-.473-.065-.25-.037-.499-.077-.747-.117l-.063-.012c-.37-.041-.74-.076-1.11-.125-.494-.065-.987-.142-1.48-.211-.19-.028-.383-.042-.573-.073-.125-.021-.246-.083-.37-.088a1.98 1.98 0 00-.547.037.34.34 0 00-.207.223c-.051.319-.045.634.26.856.04.03.071.116.057.16-.013.048-.084.103-.135.109-.185.02-.373.021-.558.028-.208.009-.414.017-.622.02-.205.002-.41-.003-.615-.005-.138-.002-.277 0-.414-.011-.218-.019-.433-.049-.65-.071-.043-.005-.088.004-.132.006-.064.001-.135.022-.19.001-.218-.08-.438-.065-.663-.048a3.6 3.6 0 01-.587-.016c-.392-.036-.785-.07-1.174-.129-.374-.056-.742-.144-1.113-.216-.168-.033-.34-.05-.506-.09a13.565 13.565 0 01-.795-.21c-.53-.16-1.061-.316-1.584-.498-.376-.13-.738-.3-1.108-.448-.336-.134-.673-.261-1.01-.391-.02-.008-.045-.007-.06-.02-.217-.197-.51-.24-.762-.358-.281-.131-.518-.325-.791-.459-.175-.085-.34-.193-.517-.272-.178-.08-.374-.126-.55-.21-.225-.105-.435-.244-.66-.349-.388-.182-.787-.342-1.177-.522-.305-.14-.6-.3-.904-.44-.183-.084-.374-.149-.561-.222-.02-.008-.041-.013-.056-.026-.306-.263-.717-.32-1.046-.538a9.848 9.848 0 00-.537-.326c-.157-.09-.325-.161-.475-.26-.167-.11-.322-.244-.48-.367-.079-.06-.164-.116-.23-.188-.093-.103-.173-.22-.257-.332-.08-.109 0-.4.144-.434.207-.052.367-.157.517-.302.066-.062.165-.091.278-.149.032-.122-.095-.17-.185-.224-.254-.15-.519-.282-.772-.433a10.337 10.337 0 01-.655-.42c-.177-.126-.343-.268-.513-.403-.098-.077-.188-.165-.293-.232-.378-.245-.195-.482.047-.658.142-.103.309-.04.463-.059.156-.017.312-.041.467-.041.081 0 .178.026.24.076.226.175.43.378.659.55.376.28.753.562 1.15.812.37.233.758.436 1.148.63.492.245.994.472 1.495.7.369.168.745.319 1.113.489.545.254 1.085.52 1.63.777.184.087.375.16.56.245.356.164.705.341 1.064.495.333.144.677.259 1.011.397.413.173.819.362 1.232.534.09.037.196.033.283.061.187.077.372.158.562.23.256.097.511.195.772.28.262.082.53.146.793.222.286.083.569.179.856.256.23.062.465.106.698.154.188.039.376.074.564.108.263.049.526.099.79.146.317.055.634.107.95.16.319.053.638.102.956.159.404.073.807.153 1.212.227.404.073.81.135 1.214.215.34.067.673.17 1.014.228.336.057.637.21.96.296.575.151 1.154.292 1.737.413.63.132 1.269.234 1.903.353.338.063.676.13 1.013.2.023.004.043.024.116.066M81.481 8.4c-.037.065-.072.11-.091.162-.115.302-.258.362-.54.241-.08-.034-.196-.003-.252-.053-.201-.176-.491-.067-.686-.247-.051-.047-.13-.06-.187-.103-.172-.127-.355-.025-.532-.037-.09-.006-.184.016-.273.005-.368-.05-.734-.117-1.103-.156-.289-.03-.582-.02-.873-.038-.091-.006-.18-.057-.27-.06-.202-.004-.405.01-.607.014-.039 0-.079-.02-.119-.021-.226-.013-.462-.07-.676-.023-.337.074-.656.23-.988.332-.3.093-.38.326-.4.604-.018.275-.159.416-.428.418-.176.001-.356-.008-.53.02-.148.025-.29.096-.436.145a.364.364 0 01-.119.026c-.182-.002-.365-.012-.548-.011-.286 0-.573.011-.86.012-.114 0-.228-.016-.343-.03-.155-.018-.31-.051-.465-.064a6.555 6.555 0 01-1.488-.28c-.19-.06-.399-.056-.593-.106a8.41 8.41 0 01-.83-.26c-.393-.15-.778-.32-1.166-.48-.608-.253-1.155-.617-1.688-1.002-.563-.404-1.12-.817-1.684-1.22-.198-.142-.412-.262-.611-.402-.276-.195-.56-.384-.813-.609-.139-.125-.226-.314-.323-.481-.02-.037-.002-.128.03-.16.15-.148.134-.358.21-.532a.732.732 0 00.029-.512 1.088 1.088 0 00-.253-.443c-.146-.141-.34-.229-.513-.34-.1-.063-.204-.122-.298-.195-.227-.178-.214-.487.011-.668.18-.145.389-.166.599-.205a3.02 3.02 0 00.49-.136c.118-.046.21-.026.27.077.067.112.107.24.167.357a.372.372 0 00.11.124c.238.178.491.339.719.53.26.22.493.476.75.7.24.208.494.4.749.59.08.06.19.075.275.131.268.182.576.334.782.576.195.228.465.24.675.395.115.085.25.146.383.201.08.034.176.028.259.055.18.062.357.14.538.2.116.039.24.048.358.085.18.056.363.108.53.19.3.15.613.23.938.298.327.067.643.184.969.258.301.067.609.105.914.158.318.056.635.117.954.173.228.04.457.08.687.117.315.051.63.103.947.148.446.061.893.116 1.339.176.182.026.363.063.546.087.144.018.288.025.433.034.103.006.206 0 .308.013.405.05.81.104 1.214.157.2.027.4.054.6.083.396.056.794.106 1.189.17.24.037.476.096.714.14.228.043.456.077.683.12.065.013.125.05.189.069.224.068.455.113.669.205.132.057.237.18.36.278"/><path d="M60.74 1.555c-.214.249-.499.293-.743.407-.255.118-.518.221-.777.33-.41.171-.822.336-1.228.514-.322.142-.637.301-.956.45-.217.102-.436.197-.654.296-.328.149-.654.3-.98.45-.58.265-1.161.527-1.74.793-.657.302-1.313.606-1.97.909-.479.22-.962.435-1.439.662-.562.267-1.118.544-1.676.815-.324.158-.651.31-.971.474-.607.313-1.21.636-1.816.953-.318.166-.643.321-.957.496-.616.342-1.23.692-1.84 1.045a56.56 56.56 0 00-1.222.734c-.6.368-1.199.74-1.793 1.115-.304.191-.595.402-.9.59-.371.231-.748.456-1.13.669-.212.118-.44.205-.66.312-.096.047-.18.12-.279.161-.21.09-.423.17-.637.25-.1.037-.203.084-.308.092-.13.009-.265-.013-.397-.031-.083-.012-.146-.154-.09-.208.09-.084.186-.175.297-.22.536-.216 1.073-.418 1.55-.757.352-.25.74-.454 1.11-.677.315-.187.631-.372.946-.56.555-.335 1.106-.677 1.665-1.007.642-.38 1.286-.753 1.934-1.121.353-.201.717-.383 1.073-.58.164-.09.315-.203.48-.29.632-.333 1.265-.666 1.901-.988.521-.263 1.051-.51 1.575-.767.412-.203.82-.418 1.234-.615.463-.221.934-.426 1.4-.643.396-.185.787-.381 1.185-.563.239-.109.488-.193.727-.302.308-.14.61-.298.917-.441.609-.282 1.222-.555 1.83-.838.501-.233.994-.481 1.498-.708.41-.184.83-.342 1.244-.52.294-.126.58-.268.874-.396.21-.091.426-.167.637-.256.293-.122.6-.104.907-.097.055.001.11.04.18.068m4.939 2.889c-.09-.012-.194-.018-.291-.043-.219-.057-.267-.23-.117-.402.068-.078.133-.161.214-.22.063-.046.158-.091.225-.075.25.063.442-.07.643-.174.265-.135.52-.293.786-.428.253-.129.513-.244.772-.357.504-.221 1.008-.443 1.516-.652a12.79 12.79 0 011.077-.4c.714-.22 1.43-.43 2.152-.62.43-.113.87-.184 1.305-.266a5.51 5.51 0 01.558-.065.298.298 0 01.175.035c.05.032.08.096.12.147-.041.034-.079.076-.124.097-.434.205-.902.265-1.363.356-.375.073-.75.152-1.117.254-.45.126-.897.273-1.341.422-.18.06-.347.16-.525.229-.244.094-.493.172-.737.264-.093.035-.18.087-.268.133-.2.103-.396.212-.599.309-.104.05-.222.07-.324.125-.156.083-.32.141-.482.21-.295.125-.56.326-.841.486-.228.129-.462.246-.695.365-.163.084-.328.17-.497.242-.062.026-.139.02-.223.028M6.314 38.784c.831 0 1.59-.171 2.277-.514a5.74 5.74 0 001.775-1.364 6.47 6.47 0 001.165-1.933c.28-.72.42-1.46.42-2.216 0-.793-.131-1.554-.393-2.284a6.311 6.311 0 00-1.11-1.946 5.571 5.571 0 00-1.708-1.365 4.663 4.663 0 00-2.182-.514c-.596 0-1.156.104-1.68.311a5.917 5.917 0 00-1.45.825c-.443.343-.84.738-1.192 1.19a7.71 7.71 0 00-.881 1.404v4.649c.054.523.253 1.014.596 1.473.343.46.754.856 1.233 1.19.479.333.998.598 1.558.797.56.198 1.084.297 1.572.297M6.585 40a5.88 5.88 0 01-3.09-.865c-.957-.576-1.706-1.315-2.248-2.216v2.811H0V20h1.355v8.73a8.883 8.883 0 012.371-2.379c.912-.612 1.965-.919 3.157-.919.994 0 1.893.212 2.697.636a6.342 6.342 0 012.032 1.675 7.801 7.801 0 011.274 2.352c.298.874.447 1.761.447 2.662a7.508 7.508 0 01-1.938 5.067 7.026 7.026 0 01-2.14 1.582 6.068 6.068 0 01-2.67.594m20.305-8.313a6.16 6.16 0 00-.536-2.194 5.88 5.88 0 00-1.179-1.71 5.305 5.305 0 00-1.663-1.123 5.067 5.067 0 00-2.018-.404c-.716 0-1.388.135-2.017.404a5.307 5.307 0 00-1.663 1.123 5.438 5.438 0 00-1.152 1.724 6.586 6.586 0 00-.511 2.18h10.74zm-5.343 7.572a6.37 6.37 0 01-2.672-.561 6.59 6.59 0 01-2.135-1.54 7.324 7.324 0 01-1.925-5c0-.958.17-1.86.51-2.704a7.115 7.115 0 011.402-2.219 6.5 6.5 0 012.109-1.501 6.336 6.336 0 012.632-.549c.96 0 1.851.188 2.672.561a6.66 6.66 0 012.122 1.515 6.94 6.94 0 011.389 2.22c.331.844.497 1.736.497 2.676v.326c0 .13-.009.214-.026.249H16.177a6.03 6.03 0 00.55 2.18 6.19 6.19 0 001.192 1.736c.48.488 1.035.87 1.663 1.149.629.278 1.3.417 2.017.417.472 0 .934-.065 1.389-.195a5.712 5.712 0 001.27-.535c.393-.227.742-.5 1.048-.823.305-.322.545-.674.72-1.057l1.153.313a4.337 4.337 0 01-.851 1.345 5.76 5.76 0 01-1.31 1.057 6.727 6.727 0 01-1.637.692 6.812 6.812 0 01-1.834.248zm15.49-12.806c-1.265.036-2.371.408-3.32 1.118-.948.71-1.612 1.686-1.992 2.926v8.762H30.37V25.24h1.301v3.452c.488-.989 1.134-1.794 1.938-2.414s1.667-.975 2.588-1.065a5.28 5.28 0 01.488-.027h.352v1.268zM49.63 39.26h-1.308v-7.716c0-1.792-.248-3.095-.745-3.911-.496-.816-1.285-1.224-2.366-1.224-.575 0-1.146.106-1.712.319a5.772 5.772 0 00-1.582.905 6.52 6.52 0 00-1.28 1.37 5.682 5.682 0 00-.812 1.69v8.566H38.52V25.424h1.228v3.3a6.517 6.517 0 012.418-2.568 6.94 6.94 0 011.634-.718 6.299 6.299 0 011.778-.253c1.481 0 2.527.528 3.137 1.583s.916 2.567.916 4.536v7.955z"/><path d="M53.333 39.26h1.482V25.54h-1.482zm0-16.833h1.482V20h-1.482zM68.889 39.26h-1.307v-7.716c0-1.792-.249-3.095-.745-3.911-.497-.816-1.286-1.224-2.367-1.224-.575 0-1.146.106-1.712.319a5.772 5.772 0 00-1.582.905c-.488.39-.914.847-1.28 1.37a5.682 5.682 0 00-.811 1.69v8.566h-1.307V25.424h1.228v3.3a6.517 6.517 0 012.418-2.568 6.94 6.94 0 011.635-.718 6.299 6.299 0 011.778-.253c1.48 0 2.527.528 3.137 1.583s.915 2.567.915 4.536v7.955zm6.989-1.046c1.018 0 1.953-.19 2.805-.574.851-.383 1.505-.888 1.962-1.514.281-.366.421-.714.421-1.045V32.68a10.664 10.664 0 00-1.975-.549 12.195 12.195 0 00-2.133-.182c-.685 0-1.308.074-1.87.222a4.996 4.996 0 00-1.448.613 2.857 2.857 0 00-.936.953 2.41 2.41 0 00-.329 1.24c0 .454.088.88.264 1.28.175.401.421.745.737 1.032s.689.514 1.12.679c.43.165.89.247 1.382.247m-.263 1.045a4.707 4.707 0 01-3.2-1.214 3.933 3.933 0 01-.961-1.332 4.031 4.031 0 01-.343-1.658c0-.592.14-1.131.421-1.619.281-.487.672-.91 1.172-1.266.501-.357 1.102-.636 1.805-.836a8.44 8.44 0 012.317-.3c.738 0 1.48.065 2.226.196.746.13 1.418.31 2.014.535v-1.332c0-1.288-.368-2.31-1.105-3.068-.738-.757-1.739-1.136-3.003-1.136-.667 0-1.374.14-2.12.418-.747.279-1.506.679-2.278 1.201l-.5-.887c1.755-1.184 3.423-1.776 5.003-1.776 1.65 0 2.95.475 3.899 1.423.948.949 1.421 2.259 1.421 3.93v6.632c0 .435.193.653.58.653v1.175a2.897 2.897 0 01-.527.052c-.351 0-.632-.117-.842-.353a1.466 1.466 0 01-.37-.848v-1.122a6.149 6.149 0 01-2.422 1.879 7.788 7.788 0 01-3.187.653m12.184-8.451h6.207c.553 0 1.057-.118 1.512-.353a3.585 3.585 0 001.164-.952c.321-.4.57-.851.75-1.356a4.734 4.734 0 00.267-1.59c0-.557-.103-1.092-.308-1.605a4.41 4.41 0 00-.83-1.344 3.964 3.964 0 00-1.23-.912 3.4 3.4 0 00-1.485-.34h-6.047zm-1.873 8.45V20.741h8.027c.82 0 1.574.169 2.26.508.687.339 1.28.782 1.78 1.33s.887 1.17 1.164 1.865c.276.696.414 1.4.414 2.113a6.12 6.12 0 01-.307 1.943 5.948 5.948 0 01-.856 1.67 5.125 5.125 0 01-1.325 1.251 4.72 4.72 0 01-1.739.691L100 39.26h-2.114l-4.468-6.834h-5.62v6.834h-1.872zm27.123-7.767a5.305 5.305 0 00-.53-1.994 5.433 5.433 0 00-1.141-1.55 5.076 5.076 0 00-1.603-1.017 5.181 5.181 0 00-1.943-.364 5.28 5.28 0 00-1.956.364 5.04 5.04 0 00-1.617 1.017 4.99 4.99 0 00-1.114 1.563 5.715 5.715 0 00-.502 1.981zm-5.217 7.767c-1.032 0-1.98-.187-2.839-.56a6.943 6.943 0 01-2.242-1.538 7.066 7.066 0 01-2.01-4.991 6.966 6.966 0 011.997-4.913 7.083 7.083 0 015.067-2.072c1.032 0 1.979.187 2.84.56a6.77 6.77 0 012.214 1.525 7.077 7.077 0 011.44 2.215 6.91 6.91 0 01.516 2.659v.417c0 .14-.01.234-.027.286H102.67a5.547 5.547 0 001.684 3.623c.471.452 1.01.804 1.617 1.056a5.01 5.01 0 001.943.378c.452 0 .905-.06 1.358-.183a5.6 5.6 0 001.25-.495 4.63 4.63 0 001.033-.769c.308-.303.543-.638.706-1.003l1.603.417a4.5 4.5 0 01-.924 1.368c-.399.409-.86.765-1.385 1.069a6.95 6.95 0 01-1.74.704 7.848 7.848 0 01-1.983.247z" mask="url(#a)"/></g></svg>