<svg width="115" height="40" viewBox="0 0 115 40" fill="none" xmlns="http://www.w3.org/2000/svg">
<g clip-path="url(#clip0_101_2)">
<path fill-rule="evenodd" clip-rule="evenodd" d="M108.148 9.48C108.087 9.517 108.046 9.556 107.998 9.568C107.712 9.645 107.433 9.742 107.127 9.628C106.981 9.573 106.812 9.585 106.654 9.563C106.404 9.526 106.155 9.486 105.907 9.446L105.844 9.434C105.474 9.393 105.104 9.358 104.734 9.309C104.24 9.244 103.747 9.167 103.254 9.098C103.064 9.07 102.871 9.056 102.681 9.025C102.556 9.004 102.435 8.942 102.311 8.937C102.128 8.92391 101.944 8.93636 101.764 8.974C101.715 8.99254 101.67 9.02234 101.634 9.06105C101.598 9.09976 101.572 9.14631 101.557 9.197C101.506 9.516 101.512 9.831 101.817 10.053C101.857 10.083 101.888 10.169 101.874 10.213C101.861 10.261 101.79 10.316 101.739 10.322C101.554 10.342 101.366 10.343 101.181 10.35C100.973 10.359 100.767 10.367 100.559 10.37C100.354 10.372 100.149 10.367 99.944 10.365C99.806 10.363 99.667 10.365 99.53 10.354C99.312 10.335 99.097 10.305 98.88 10.283C98.837 10.278 98.792 10.287 98.748 10.289C98.684 10.29 98.613 10.311 98.558 10.29C98.34 10.21 98.12 10.225 97.895 10.242C97.6992 10.2527 97.5029 10.2473 97.308 10.226C96.916 10.19 96.523 10.156 96.134 10.097C95.76 10.041 95.392 9.953 95.021 9.881C94.853 9.848 94.681 9.831 94.515 9.791C94.2479 9.72905 93.9828 9.65902 93.72 9.581C93.19 9.421 92.659 9.265 92.136 9.083C91.76 8.953 91.398 8.783 91.028 8.635C90.692 8.501 90.355 8.374 90.018 8.244C89.998 8.236 89.973 8.237 89.958 8.224C89.741 8.027 89.448 7.984 89.196 7.866C88.915 7.735 88.678 7.541 88.405 7.407C88.23 7.322 88.065 7.214 87.888 7.135C87.71 7.055 87.514 7.009 87.338 6.925C87.113 6.82 86.903 6.681 86.678 6.576C86.29 6.394 85.891 6.234 85.501 6.054C85.196 5.914 84.901 5.754 84.597 5.614C84.414 5.53 84.223 5.465 84.036 5.392C84.016 5.384 83.995 5.379 83.98 5.366C83.674 5.103 83.263 5.046 82.934 4.828C82.7585 4.71365 82.5794 4.60493 82.397 4.502C82.24 4.412 82.072 4.341 81.922 4.242C81.755 4.132 81.6 3.998 81.442 3.875C81.363 3.815 81.278 3.759 81.212 3.687C81.119 3.584 81.039 3.467 80.955 3.355C80.875 3.246 80.955 2.955 81.099 2.921C81.306 2.869 81.466 2.764 81.616 2.619C81.682 2.557 81.781 2.528 81.894 2.47C81.926 2.348 81.799 2.3 81.709 2.246C81.455 2.096 81.19 1.964 80.937 1.813C80.7135 1.68127 80.495 1.54117 80.282 1.393C80.105 1.267 79.939 1.125 79.769 0.99C79.671 0.913 79.581 0.825 79.476 0.758C79.098 0.513 79.281 0.276 79.523 0.1C79.665 -0.003 79.832 0.06 79.986 0.041C80.142 0.024 80.298 0 80.453 0C80.534 0 80.631 0.026 80.693 0.076C80.919 0.251 81.123 0.454 81.352 0.626C81.728 0.906 82.105 1.188 82.502 1.438C82.872 1.671 83.26 1.874 83.65 2.068C84.142 2.313 84.644 2.54 85.145 2.768C85.514 2.936 85.89 3.087 86.258 3.257C86.803 3.511 87.343 3.777 87.888 4.034C88.072 4.121 88.263 4.194 88.448 4.279C88.804 4.443 89.153 4.62 89.512 4.774C89.845 4.918 90.189 5.033 90.523 5.171C90.936 5.344 91.342 5.533 91.755 5.705C91.845 5.742 91.951 5.738 92.038 5.766C92.225 5.843 92.41 5.924 92.6 5.996C92.856 6.093 93.111 6.191 93.372 6.276C93.634 6.358 93.902 6.422 94.165 6.498C94.451 6.581 94.734 6.677 95.021 6.754C95.251 6.816 95.486 6.86 95.719 6.908C95.907 6.947 96.095 6.982 96.283 7.016C96.546 7.065 96.809 7.115 97.073 7.162C97.39 7.217 97.707 7.269 98.023 7.322C98.342 7.375 98.661 7.424 98.979 7.481C99.383 7.554 99.786 7.634 100.191 7.708C100.595 7.781 101.001 7.843 101.405 7.923C101.745 7.99 102.078 8.093 102.419 8.151C102.755 8.208 103.056 8.361 103.379 8.447C103.954 8.598 104.533 8.739 105.116 8.86C105.746 8.992 106.385 9.094 107.019 9.213C107.357 9.276 107.695 9.343 108.032 9.413C108.055 9.417 108.075 9.437 108.148 9.479M81.481 8.4C81.444 8.465 81.409 8.51 81.39 8.562C81.275 8.864 81.132 8.924 80.85 8.803C80.77 8.769 80.654 8.8 80.598 8.75C80.397 8.574 80.107 8.683 79.912 8.503C79.861 8.456 79.782 8.443 79.725 8.4C79.553 8.273 79.37 8.375 79.193 8.363C79.103 8.357 79.009 8.379 78.92 8.368C78.552 8.318 78.186 8.251 77.817 8.212C77.528 8.182 77.235 8.192 76.944 8.174C76.853 8.168 76.764 8.117 76.674 8.114C76.472 8.11 76.269 8.124 76.067 8.128C76.028 8.128 75.988 8.108 75.948 8.107C75.722 8.094 75.486 8.037 75.272 8.084C74.935 8.158 74.616 8.314 74.284 8.416C73.984 8.509 73.904 8.742 73.884 9.02C73.866 9.295 73.725 9.436 73.456 9.438C73.28 9.439 73.1 9.43 72.926 9.458C72.778 9.483 72.636 9.554 72.49 9.603C72.4521 9.61829 72.4118 9.62708 72.371 9.629C72.189 9.627 72.006 9.617 71.823 9.618C71.537 9.618 71.25 9.629 70.963 9.63C70.849 9.63 70.735 9.614 70.62 9.6C70.465 9.582 70.31 9.549 70.155 9.536C69.6498 9.50046 69.1505 9.4065 68.667 9.256C68.477 9.196 68.268 9.2 68.074 9.15C67.793 9.07771 67.516 8.99093 67.244 8.89C66.851 8.74 66.466 8.57 66.078 8.41C65.47 8.157 64.923 7.793 64.39 7.408C63.827 7.004 63.27 6.591 62.706 6.188C62.508 6.046 62.294 5.926 62.095 5.786C61.819 5.591 61.535 5.402 61.282 5.177C61.143 5.052 61.056 4.863 60.959 4.696C60.939 4.659 60.957 4.568 60.989 4.536C61.139 4.388 61.123 4.178 61.199 4.004C61.2701 3.84241 61.2804 3.66058 61.228 3.492C61.18 3.32637 61.0932 3.17453 60.975 3.049C60.829 2.908 60.635 2.82 60.462 2.709C60.362 2.646 60.258 2.587 60.164 2.514C59.937 2.336 59.95 2.027 60.175 1.846C60.355 1.701 60.564 1.68 60.774 1.641C60.9409 1.60952 61.1048 1.56403 61.264 1.505C61.382 1.459 61.474 1.479 61.534 1.582C61.601 1.694 61.641 1.822 61.701 1.939C61.7279 1.98808 61.7655 2.03047 61.811 2.063C62.049 2.241 62.302 2.402 62.53 2.593C62.79 2.813 63.023 3.069 63.28 3.293C63.52 3.501 63.774 3.693 64.029 3.883C64.109 3.943 64.219 3.958 64.304 4.014C64.572 4.196 64.88 4.348 65.086 4.59C65.281 4.818 65.551 4.83 65.761 4.985C65.876 5.07 66.011 5.131 66.144 5.186C66.224 5.22 66.32 5.214 66.403 5.241C66.583 5.303 66.76 5.381 66.941 5.441C67.057 5.48 67.181 5.489 67.299 5.526C67.479 5.582 67.662 5.634 67.829 5.716C68.129 5.866 68.442 5.946 68.767 6.014C69.094 6.081 69.41 6.198 69.736 6.272C70.037 6.339 70.345 6.377 70.65 6.43C70.968 6.486 71.285 6.547 71.604 6.603C71.832 6.643 72.061 6.683 72.291 6.72C72.606 6.771 72.921 6.823 73.238 6.868C73.684 6.929 74.131 6.984 74.577 7.044C74.759 7.07 74.94 7.107 75.123 7.131C75.267 7.149 75.411 7.156 75.556 7.165C75.659 7.171 75.762 7.165 75.864 7.178C76.269 7.228 76.674 7.282 77.078 7.335C77.278 7.362 77.478 7.389 77.678 7.418C78.074 7.474 78.472 7.524 78.867 7.588C79.107 7.625 79.343 7.684 79.581 7.728C79.809 7.771 80.037 7.805 80.264 7.848C80.329 7.861 80.389 7.898 80.453 7.917C80.677 7.985 80.908 8.03 81.122 8.122C81.254 8.179 81.359 8.302 81.482 8.4" fill="#333333"/>
<path fill-rule="evenodd" clip-rule="evenodd" d="M60.74 1.55501C60.526 1.80401 60.241 1.84801 59.997 1.96201C59.742 2.08001 59.479 2.18301 59.22 2.29201C58.81 2.46301 58.398 2.62801 57.992 2.80601C57.67 2.94801 57.355 3.10701 57.036 3.25601C56.819 3.35801 56.6 3.45301 56.382 3.55201C56.054 3.70101 55.728 3.85201 55.402 4.00201C54.822 4.26701 54.241 4.52901 53.662 4.79501C53.005 5.09701 52.349 5.40101 51.692 5.70401C51.213 5.92401 50.73 6.13901 50.253 6.36601C49.691 6.63301 49.135 6.91001 48.577 7.18101C48.253 7.33901 47.926 7.49101 47.606 7.65501C46.999 7.96801 46.396 8.29101 45.79 8.60801C45.472 8.77401 45.147 8.92901 44.833 9.10401C44.217 9.44601 43.603 9.79601 42.993 10.149C42.5826 10.3885 42.1752 10.6332 41.771 10.883C41.171 11.251 40.572 11.623 39.978 11.998C39.674 12.189 39.383 12.4 39.078 12.588C38.707 12.819 38.33 13.044 37.948 13.257C37.736 13.375 37.508 13.462 37.288 13.569C37.192 13.616 37.108 13.689 37.009 13.73C36.799 13.82 36.586 13.9 36.372 13.98C36.272 14.017 36.169 14.064 36.064 14.072C35.934 14.081 35.799 14.059 35.667 14.041C35.584 14.029 35.521 13.887 35.577 13.833C35.667 13.749 35.763 13.658 35.874 13.613C36.41 13.397 36.947 13.195 37.424 12.856C37.776 12.606 38.164 12.402 38.534 12.179C38.849 11.992 39.165 11.807 39.48 11.619C40.035 11.284 40.586 10.942 41.145 10.612C41.787 10.232 42.431 9.85901 43.079 9.49101C43.432 9.29001 43.796 9.10801 44.152 8.91101C44.316 8.82101 44.467 8.70801 44.632 8.62101C45.264 8.28801 45.897 7.95501 46.533 7.63301C47.054 7.37001 47.584 7.12301 48.108 6.86601C48.52 6.66301 48.928 6.44801 49.342 6.25101C49.805 6.03001 50.276 5.82501 50.742 5.60801C51.138 5.42301 51.529 5.22701 51.927 5.04501C52.166 4.93601 52.415 4.85201 52.654 4.74301C52.962 4.60301 53.264 4.44501 53.571 4.30201C54.18 4.02001 54.793 3.74701 55.401 3.46401C55.902 3.23101 56.395 2.98301 56.899 2.75601C57.309 2.57201 57.729 2.41401 58.143 2.23601C58.437 2.11001 58.723 1.96801 59.017 1.84001C59.227 1.74901 59.443 1.67301 59.654 1.58401C59.947 1.46201 60.254 1.48001 60.561 1.48701C60.616 1.48801 60.671 1.52701 60.741 1.55501M65.68 4.44401C65.59 4.43201 65.486 4.42601 65.389 4.40101C65.17 4.34401 65.122 4.17101 65.272 3.99901C65.34 3.92101 65.405 3.83801 65.486 3.77901C65.549 3.73301 65.644 3.68801 65.711 3.70401C65.961 3.76701 66.153 3.63401 66.354 3.53001C66.619 3.39501 66.874 3.23701 67.14 3.10201C67.393 2.97301 67.653 2.85801 67.912 2.74501C68.416 2.52401 68.92 2.30201 69.428 2.09301C69.7808 1.94361 70.1402 1.81014 70.505 1.69301C71.219 1.47301 71.935 1.26301 72.657 1.07301C73.087 0.960006 73.527 0.889006 73.962 0.807006C74.1468 0.775865 74.333 0.754171 74.52 0.742006C74.5805 0.735521 74.6416 0.747736 74.695 0.777006C74.745 0.809006 74.775 0.873006 74.815 0.924006C74.774 0.958006 74.736 1.00001 74.691 1.02101C74.257 1.22601 73.789 1.28601 73.328 1.37701C72.953 1.45001 72.578 1.52901 72.211 1.63101C71.761 1.75701 71.314 1.90401 70.87 2.05301C70.69 2.11301 70.523 2.21301 70.345 2.28201C70.101 2.37601 69.852 2.45401 69.608 2.54601C69.515 2.58101 69.428 2.63301 69.34 2.67901C69.14 2.78201 68.944 2.89101 68.741 2.98801C68.637 3.03801 68.519 3.05801 68.417 3.11301C68.261 3.19601 68.097 3.25401 67.935 3.32301C67.64 3.44801 67.375 3.64901 67.094 3.80901C66.866 3.93801 66.632 4.05501 66.399 4.17401C66.236 4.25801 66.071 4.34401 65.902 4.41601C65.84 4.44201 65.763 4.43601 65.679 4.44401M6.314 38.784C7.145 38.784 7.904 38.613 8.591 38.27C9.26645 37.9362 9.86958 37.4728 10.366 36.906C10.8646 36.3349 11.2589 35.6806 11.531 34.973C11.811 34.253 11.951 33.513 11.951 32.757C11.951 31.964 11.82 31.203 11.558 30.473C11.307 29.7633 10.9311 29.1043 10.448 28.527C9.97442 27.9637 9.39391 27.4997 8.74 27.162C8.06528 26.8158 7.31631 26.6394 6.558 26.648C5.962 26.648 5.402 26.752 4.878 26.959C4.35813 27.1641 3.86995 27.4419 3.428 27.784C2.985 28.127 2.588 28.522 2.236 28.974C1.89273 29.409 1.59736 29.8797 1.355 30.378V35.027C1.409 35.55 1.608 36.041 1.951 36.5C2.294 36.96 2.705 37.356 3.184 37.69C3.663 38.023 4.182 38.288 4.742 38.487C5.302 38.685 5.826 38.784 6.314 38.784M6.585 40C5.49472 40.0037 4.42489 39.7042 3.495 39.135C2.538 38.559 1.789 37.82 1.247 36.919V39.73H0V20H1.355V28.73C1.98686 27.7934 2.79157 26.986 3.726 26.351C4.638 25.739 5.691 25.432 6.883 25.432C7.877 25.432 8.776 25.644 9.58 26.068C10.3671 26.478 11.0593 27.0486 11.612 27.743C12.1689 28.4478 12.5999 29.2435 12.886 30.095C13.184 30.969 13.333 31.856 13.333 32.757C13.3411 34.6285 12.65 36.4356 11.395 37.824C10.789 38.4829 10.0626 39.0198 9.255 39.406C8.42181 39.8046 7.50861 40.0078 6.585 40M26.89 31.687C26.8481 30.9289 26.6664 30.1851 26.354 29.493C26.0656 28.8576 25.6664 28.2785 25.175 27.783C24.6972 27.3063 24.1327 26.9251 23.512 26.66C22.8741 26.3887 22.1872 26.2512 21.494 26.256C20.778 26.256 20.106 26.391 19.477 26.66C18.8563 26.9252 18.2919 27.3063 17.814 27.783C17.323 28.2785 16.9319 28.8638 16.662 29.507C16.3685 30.1992 16.1957 30.9365 16.151 31.687H26.891H26.89ZM21.547 39.259C20.6263 39.2673 19.7147 39.0759 18.875 38.698C18.067 38.3335 17.3409 37.8097 16.74 37.158C15.4899 35.7943 14.8021 34.008 14.815 32.158C14.815 31.2 14.985 30.298 15.325 29.454C15.6507 28.6338 16.1261 27.8813 16.727 27.235C17.3223 26.5983 18.0395 26.0879 18.836 25.734C19.664 25.3648 20.5615 25.1776 21.468 25.185C22.428 25.185 23.319 25.373 24.14 25.746C24.9402 26.1063 25.6614 26.6211 26.262 27.261C26.8617 27.9062 27.3331 28.6596 27.651 29.481C27.982 30.325 28.148 31.217 28.148 32.157V32.483C28.148 32.613 28.139 32.697 28.122 32.732H16.177C16.222 33.4867 16.4086 34.2262 16.727 34.912C17.0223 35.5545 17.4254 36.1417 17.919 36.648C18.399 37.136 18.954 37.518 19.582 37.797C20.211 38.075 20.882 38.214 21.599 38.214C22.071 38.214 22.533 38.149 22.988 38.019C23.4314 37.8926 23.8578 37.7129 24.258 37.484C24.651 37.257 25 36.984 25.306 36.661C25.611 36.339 25.851 35.987 26.026 35.604L27.179 35.917C26.9807 36.414 26.6922 36.87 26.328 37.262C25.9454 37.6766 25.5041 38.0327 25.018 38.319C24.5053 38.6211 23.9549 38.8538 23.381 39.011C22.7838 39.1767 22.1668 39.2602 21.547 39.259ZM37.037 26.453C35.772 26.489 34.666 26.861 33.717 27.571C32.769 28.281 32.105 29.257 31.725 30.497V39.259H30.37V25.24H31.671V28.692C32.159 27.703 32.805 26.898 33.609 26.278C34.413 25.658 35.276 25.303 36.197 25.213C36.3592 25.1965 36.522 25.1875 36.685 25.186H37.037V26.454V26.453ZM49.63 39.26H48.322V31.544C48.322 29.752 48.074 28.449 47.577 27.633C47.081 26.817 46.292 26.409 45.211 26.409C44.636 26.409 44.065 26.515 43.499 26.728C42.9271 26.944 42.3931 27.2495 41.917 27.633C41.4266 28.0256 40.9954 28.4871 40.637 29.003C40.2746 29.5175 40.0002 30.0886 39.825 30.693V39.259H38.52V25.424H39.748V28.724C40.3026 27.662 41.1393 26.7735 42.166 26.156C42.6775 25.8473 43.2267 25.606 43.8 25.438C44.3775 25.2692 44.9763 25.184 45.578 25.185C47.059 25.185 48.105 25.713 48.715 26.768C49.325 27.823 49.631 29.335 49.631 31.304V39.259L49.63 39.26Z" fill="#333333"/>
<mask id="mask0_101_2" style="mask-type:alpha" maskUnits="userSpaceOnUse" x="0" y="0" width="115" height="40">
<path fill-rule="evenodd" clip-rule="evenodd" d="M0 40H114.815V0H0V40Z" fill="#333333"/>
</mask>
<g mask="url(#mask0_101_2)">
<path fill-rule="evenodd" clip-rule="evenodd" d="M53.333 39.26H54.815V25.54H53.333V39.26ZM53.333 22.427H54.815V20H53.333V22.427ZM68.889 39.26H67.582V31.544C67.582 29.752 67.333 28.449 66.837 27.633C66.34 26.817 65.551 26.409 64.47 26.409C63.895 26.409 63.324 26.515 62.758 26.728C62.1861 26.944 61.6521 27.2495 61.176 27.633C60.688 28.023 60.262 28.48 59.896 29.003C59.534 29.5175 59.2599 30.0887 59.085 30.693V39.259H57.778V25.424H59.006V28.724C59.5606 27.662 60.3973 26.7735 61.424 26.156C61.9358 25.8473 62.4854 25.6059 63.059 25.438C63.6365 25.2692 64.2353 25.184 64.837 25.185C66.317 25.185 67.364 25.713 67.974 26.768C68.584 27.823 68.889 29.335 68.889 31.304V39.259V39.26ZM75.878 38.214C76.896 38.214 77.831 38.024 78.683 37.64C79.534 37.257 80.188 36.752 80.645 36.126C80.926 35.76 81.066 35.412 81.066 35.081V32.68C80.4268 32.434 79.7654 32.2502 79.091 32.131C78.3867 32.0079 77.673 31.947 76.958 31.949C76.273 31.949 75.65 32.023 75.088 32.171C74.576 32.2976 74.0873 32.5045 73.64 32.784C73.2571 33.0232 72.9363 33.3498 72.704 33.737C72.4843 34.113 72.3706 34.5415 72.375 34.977C72.375 35.431 72.463 35.857 72.639 36.257C72.814 36.658 73.06 37.002 73.376 37.289C73.692 37.576 74.065 37.803 74.496 37.968C74.926 38.133 75.386 38.215 75.878 38.215M75.615 39.26C74.4338 39.2712 73.2916 38.8379 72.415 38.046C72.0045 37.6746 71.677 37.2207 71.454 36.714C71.2236 36.1918 71.1067 35.6267 71.111 35.056C71.111 34.464 71.251 33.925 71.532 33.437C71.813 32.95 72.204 32.527 72.704 32.171C73.205 31.814 73.806 31.535 74.509 31.335C75.2637 31.1281 76.0435 31.0271 76.826 31.035C77.564 31.035 78.306 31.1 79.052 31.231C79.798 31.361 80.47 31.541 81.066 31.766V30.434C81.066 29.146 80.698 28.124 79.961 27.366C79.223 26.609 78.222 26.23 76.958 26.23C76.291 26.23 75.584 26.37 74.838 26.648C74.091 26.927 73.332 27.327 72.56 27.849L72.06 26.962C73.815 25.778 75.483 25.186 77.063 25.186C78.713 25.186 80.013 25.661 80.962 26.609C81.91 27.558 82.383 28.868 82.383 30.539V37.171C82.383 37.606 82.576 37.824 82.963 37.824V38.999C82.7893 39.0324 82.6129 39.0498 82.436 39.051C82.085 39.051 81.804 38.934 81.594 38.698C81.3824 38.4627 81.2526 38.1652 81.224 37.85V36.728C80.5882 37.5488 79.755 38.1952 78.802 38.607C77.7975 39.0466 76.7115 39.2691 75.615 39.26M87.799 30.809H94.006C94.559 30.809 95.063 30.691 95.518 30.456C95.9689 30.2245 96.3657 29.9001 96.682 29.504C97.003 29.104 97.252 28.653 97.432 28.148C97.6113 27.6372 97.7016 27.0994 97.699 26.558C97.699 26.001 97.596 25.466 97.391 24.953C97.1975 24.4587 96.9163 24.0034 96.561 23.609C96.2142 23.2279 95.7964 22.9182 95.331 22.697C94.8681 22.4728 94.3604 22.3566 93.846 22.357H87.799V30.809ZM85.926 39.259V20.741H93.953C94.773 20.741 95.527 20.91 96.213 21.249C96.9 21.588 97.493 22.031 97.993 22.579C98.493 23.127 98.88 23.749 99.157 24.444C99.433 25.14 99.571 25.844 99.571 26.557C99.5741 27.217 99.4704 27.8731 99.264 28.5C99.0688 29.0985 98.7799 29.6621 98.408 30.17C98.0446 30.6628 97.5959 31.0865 97.083 31.421C96.5553 31.7651 95.964 32 95.344 32.112L100 39.26H97.886L93.418 32.426H87.798V39.26H85.926V39.259ZM113.049 31.492C113.005 30.7991 112.824 30.1216 112.519 29.498C112.234 28.9175 111.848 28.3926 111.378 27.948C110.912 27.5112 110.369 27.1662 109.775 26.931C109.157 26.6861 108.497 26.5625 107.832 26.567C107.163 26.5633 106.499 26.6868 105.876 26.931C105.277 27.1638 104.728 27.509 104.259 27.948C103.79 28.392 103.412 28.9228 103.145 29.511C102.86 30.1358 102.69 30.8069 102.643 31.492H113.049ZM107.832 39.259C106.8 39.259 105.852 39.072 104.993 38.699C104.152 38.3391 103.39 37.8164 102.751 37.161C101.449 35.8275 100.727 34.0336 100.741 32.17C100.733 30.3331 101.451 28.5673 102.738 27.257C103.403 26.5927 104.193 26.0674 105.063 25.7117C105.933 25.356 106.865 25.1769 107.805 25.185C108.837 25.185 109.784 25.372 110.645 25.745C111.478 26.1002 112.23 26.6188 112.859 27.27C113.474 27.9114 113.962 28.6628 114.299 29.485C114.645 30.3286 114.82 31.2323 114.815 32.144V32.561C114.815 32.701 114.805 32.795 114.788 32.847H102.67C102.762 34.2219 103.362 35.5134 104.354 36.47C104.825 36.922 105.364 37.274 105.971 37.526C106.587 37.78 107.248 37.9085 107.914 37.904C108.366 37.904 108.819 37.844 109.272 37.721C109.707 37.6068 110.127 37.4406 110.522 37.226C110.9 37.019 111.248 36.7602 111.555 36.457C111.863 36.154 112.098 35.819 112.261 35.454L113.864 35.871C113.643 36.3801 113.33 36.8439 112.94 37.239C112.541 37.648 112.08 38.004 111.555 38.308C111.01 38.6203 110.424 38.8571 109.815 39.012C109.167 39.1785 108.501 39.2615 107.832 39.259V39.259Z" fill="#333333"/>
</g>
</g>
<defs>
<clipPath id="clip0_101_2">
<rect width="115" height="40" fill="white"/>
</clipPath>
</defs>
</svg>
